# xmcd CD database file
#
# Track frame offsets:
#	150
#	20373
#	39615
#	58415
#	76575
#	84528
#	103178
#	116460
#	142010
#	165475
#	186598
#	208798
#
# Disc length: 3055 seconds
#
# Revision: 5
# Processed by: cddbd v1.5.2PL0 Copyright (c) Steve Scherf et al.
# Submitted via: CDex 1.70beta2
#
DISCID=a50bed0c
DTITLE=ROUND TABLE featuring Nino VICL-61106 - APRIL
DYEAR=2003
DGENRE=Pop
TTITLE0=Let Me Be With You
TTITLE1=Dancin' All Night
TTITLE2=Beautiful
TTITLE3=NEW WORLD
TTITLE4=Day by Day
TTITLE5=Birthday
TTITLE6=Book End Bossa
TTITLE7=Where Is Love
TTITLE8=Today
TTITLE9=In April
TTITLE10=Love Me Baby
TTITLE11=Let Me Be With You (new step mix)
EXTD=YEAR: 2003
EXTT0=
EXTT1=
EXTT2=
EXTT3=
EXTT4=
EXTT5=
EXTT6=
EXTT7=
EXTT8=
EXTT9=
EXTT10=
EXTT11=
PLAYORDER=
